<svg xmlns="http://www.w3.org/2000/svg" viewBox="0 0 64 64" width="64" height="64" role="img" aria-label="Oie cendrée"><defs><clipPath id="anser-anser-c"><path d="M26.7 54.1L42.7 56.8A15 15 0 0 0 42.7 27.2L26.7 29.9A12.3 12.3 0 1 0 26.7 54.1Z"/><path d="M19 24C20 27 21 38 30.8 39" fill="none" stroke="#fff" stroke-width="8" stroke-linecap="round"/><circle cx="16" cy="20" r="8" fill="#fff"/></clipPath><linearGradient id="anser-anser-s" x2="1" y2="1"><stop stop-color="#fff" stop-opacity=".16"/><stop offset=".45" stop-color="#fff" stop-opacity="0"/><stop offset="1" stop-color="#061020" stop-opacity=".28"/></linearGradient></defs><g transform="translate(4.6 -.5) scale(.9)"><g data-morphotype="goose"></g><g data-zone="tail"><path d="M47.5 45.6L58.6 41.7A1.8 1.8 0 0 0 58 38.2L46.2 38.2A3.8 3.8 0 1 0 47.5 45.6Z" fill="#8B826C"/></g><g data-zone="beak"><g stroke-linejoin="round" stroke-width="1.1"><path d="M9.4 20.4L2.1 21.6L9.4 23.2Z" fill="#9A7339" stroke="#9A7339"/><path d="M9.4 17.8L.4 20L9.4 20.2Z" fill="#D6A04F" stroke="#D6A04F"/></g></g><path d="M26.7 54.1L42.7 56.8A15 15 0 0 0 42.7 27.2L26.7 29.9A12.3 12.3 0 1 0 26.7 54.1Z" fill="#DFD8C2"/><path d="M19 24C20 27 21 38 30.8 39" fill="none" stroke="#DFD8C2" stroke-width="8" stroke-linecap="round"/><circle cx="16" cy="20" r="8" fill="#DFD8C2"/><g clip-path="url(#anser-anser-c)"><g data-zone="back"><circle cx="45.2" cy="34.8" r="12.3" fill="#8B8169"/></g><g data-zone="belly"><circle cx="36.5" cy="53.7" r="10.5" fill="#DFD8C2"/></g><g data-zone="breast"><circle cx="19.4" cy="43.8" r="9.3" fill="#C5BBA4"/></g><g data-zone="throat"><circle cx="14.6" cy="25.8" r="4.6" fill="#BDB49B"/></g><g data-zone="cheek"><circle cx="13" cy="21.4" r="4.2" fill="#B4A98E"/></g><g data-zone="crown"><circle cx="16.8" cy="14.4" r="5.4" fill="#A39A80"/></g></g><path d="M26.7 54.1L42.7 56.8A15 15 0 0 0 42.7 27.2L26.7 29.9A12.3 12.3 0 1 0 26.7 54.1Z" fill="url(#anser-anser-s)"/><path d="M19 24C20 27 21 38 30.8 39" fill="none" stroke="url(#anser-anser-s)" stroke-width="8" stroke-linecap="round"/><circle cx="16" cy="20" r="8" fill="url(#anser-anser-s)"/><g data-zone="wing"><g data-zone="wing_bar"><g fill="none" stroke-width="3.2" stroke-linecap="round"><path d="M36 33.4V42.6M44.6 32.8V43.2" stroke="#89836F"/><path d="M40.3 31.2V44.8M48.9 35V41" stroke="#D1C9B2"/></g></g></g><g data-zone="legs"></g><g data-zone="eye"><circle cx="13.6" cy="19" r="2.2" fill="#17212C"/><circle cx="12.9" cy="18.3" r=".7" fill="#FFFFFF"/></g></g></svg>
