<svg xmlns="http://www.w3.org/2000/svg" viewBox="0 0 64 64" width="64" height="64" role="img" aria-label="Buse variable"><defs><clipPath id="buteo-buteo-c"><path d="M15.7 30.5A10 10 0 1 1 29.7 17A6 6 0 0 0 34.6 20A17 17 0 1 1 17.3 34A3.5 3.5 0 0 0 15.7 30.5Z"/></clipPath><linearGradient id="buteo-buteo-s" x2="1" y2="1"><stop stop-color="#fff" stop-opacity=".16"/><stop offset=".45" stop-color="#fff" stop-opacity="0"/><stop offset="1" stop-color="#061020" stop-opacity=".28"/></linearGradient></defs><g transform="translate(2.5 -.4) scale(.9)"><path d="M3.8 22q-.8 2.2 .8 3.4" fill="none" stroke="#49514C" stroke-width="1.5" stroke-linecap="round"/><g data-morphotype="raptor"></g><g data-zone="tail"><path d="M47.9 41.7L59.7 34.3A2.8 2.8 0 0 0 57.4 29.3L44.2 33.6A4.5 4.5 0 1 0 47.9 41.7Z" fill="#877657"/></g><g data-zone="beak"><g stroke-linejoin="round" stroke-width="1.1"><path d="M12.8 22.4L5.4 23.4L12.8 24.9Z" fill="#49514C" stroke="#49514C"/><path d="M12.8 20L3.8 22L12.8 22.2Z" fill="#65706A" stroke="#65706A"/></g></g><path d="M15.7 30.5A10 10 0 1 1 29.7 17A6 6 0 0 0 34.6 20A17 17 0 1 1 17.3 34A3.5 3.5 0 0 0 15.7 30.5Z" fill="#D1BD93"/><g clip-path="url(#buteo-buteo-c)"><g data-zone="back"><circle cx="42.2" cy="28.8" r="13.9" fill="#775F47"/></g><g data-zone="belly"><circle cx="32.3" cy="50.3" r="11.9" fill="#D1BD93"/></g><g data-zone="breast"><circle cx="25.2" cy="39" r="10.5" fill="#8D7252"/></g><g data-zone="throat"><circle cx="19.2" cy="29.2" r="5.8" fill="#D5C5A2"/></g><g data-zone="cheek"><circle cx="17.2" cy="23.8" r="5.2" fill="#9B8566"/></g><g data-zone="crown"><circle cx="22" cy="15" r="6.8" fill="#775F47"/></g><g data-pattern="diagnostic"><path d="M26.4 40.4L28.4 41.4" stroke="#8D7252" stroke-width="1.3" stroke-linecap="round"/><path d="M30.6 42.4L32.6 43.5" stroke="#8D7252" stroke-width="1.3" stroke-linecap="round"/><path d="M34.5 43.8L36.5 44.8" stroke="#8D7252" stroke-width="1.3" stroke-linecap="round"/><path d="M28.1 45.8L30.1 46.9" stroke="#8D7252" stroke-width="1.3" stroke-linecap="round"/></g></g><path d="M15.7 30.5A10 10 0 1 1 29.7 17A6 6 0 0 0 34.6 20A17 17 0 1 1 17.3 34A3.5 3.5 0 0 0 15.7 30.5Z" fill="url(#buteo-buteo-s)"/><g data-zone="wing"><g data-zone="wing_bar"><g fill="none" stroke-width="3.2" stroke-linecap="round"><path d="M34 32.2V41.8M42.6 31.6V42.4" stroke="#5D4F3C"/><path d="M38.3 29.9V44.1M46.9 33.9V40.1" stroke="#775F47"/></g></g></g><g data-zone="legs"><path d="M30 49.9L28 57.9" stroke="#D4B149" stroke-width="1.8" stroke-linecap="round"/><path d="M36 50.9L37 58.9" stroke="#D4B149" stroke-width="1.8" stroke-linecap="round"/><path d="M29 57.9L25 59.9" stroke="#D4B149" stroke-width="1.6" stroke-linecap="round"/><path d="M29 57.9L32 60.9" stroke="#D4B149" stroke-width="1.6" stroke-linecap="round"/><path d="M36 57.9L40 59.9" stroke="#D4B149" stroke-width="1.6" stroke-linecap="round"/></g><g data-zone="eye"><circle cx="18" cy="20.8" r="2.2" fill="#17212C"/><circle cx="17.3" cy="20.1" r=".7" fill="#FFFFFF"/></g></g></svg>
