<svg xmlns="http://www.w3.org/2000/svg" viewBox="0 0 64 64" width="64" height="64" role="img" aria-label="Pigeon biset"><defs><clipPath id="columba-livia-c"><path d="M16.3 33.2A9 9 0 1 1 27.3 19.8A6 6 0 0 0 33.2 22.2A18 18 0 1 1 18.3 37A3.5 3.5 0 0 0 16.3 33.2Z"/></clipPath><linearGradient id="columba-livia-s" x2="1" y2="1"><stop stop-color="#fff" stop-opacity=".16"/><stop offset=".45" stop-color="#fff" stop-opacity="0"/><stop offset="1" stop-color="#061020" stop-opacity=".28"/></linearGradient></defs><g transform="translate(-.4 -3) scale(.9)"><g data-morphotype="pigeon"></g><g data-zone="tail"><path d="M49.7 45.1L61.9 40.8A2.8 2.8 0 0 0 60.7 35.4L47.9 36.4A4.5 4.5 0 1 0 49.7 45.1Z" fill="#5E6A77"/></g><g data-zone="beak"><g stroke-linejoin="round" stroke-width="1.1"><path d="M12.6 25.4L8.5 26.1L12.6 27.2Z" fill="#3E4245" stroke="#3E4245"/><path d="M12.6 23.5L7.6 25L12.6 25.2Z" fill="#565C60" stroke="#565C60"/></g></g><path d="M16.3 33.2A9 9 0 1 1 27.3 19.8A6 6 0 0 0 33.2 22.2A18 18 0 1 1 18.3 37A3.5 3.5 0 0 0 16.3 33.2Z" fill="#919BA7"/><g clip-path="url(#columba-livia-c)"><g data-zone="back"><circle cx="44.6" cy="31.4" r="14.8" fill="#919BA7"/></g><g data-zone="belly"><circle cx="34.2" cy="54" r="12.6" fill="#919BA7"/></g><g data-zone="breast"><circle cx="23.8" cy="42.2" r="11.2" fill="#8F8C9D"/></g><g data-zone="throat"><circle cx="18.4" cy="31.5" r="5.2" fill="#5C7C75"/></g><g data-zone="cheek"><circle cx="16.6" cy="26.6" r="4.7" fill="#919BA7"/></g><g data-zone="crown"><circle cx="20.9" cy="18.7" r="6.1" fill="#919BA7"/></g></g><path d="M16.3 33.2A9 9 0 1 1 27.3 19.8A6 6 0 0 0 33.2 22.2A18 18 0 1 1 18.3 37A3.5 3.5 0 0 0 16.3 33.2Z" fill="url(#columba-livia-s)"/><g data-zone="wing"><g data-zone="wing_bar"><g fill="none" stroke-width="3.2" stroke-linecap="round"><path d="M35 33.5V42.5M43.6 32.9V43.1" stroke="#83919F"/><path d="M39.3 31.3V44.7M47.9 35.1V40.9" stroke="#343D48"/></g></g></g><g data-zone="legs"><path d="M32 53.7L30 59.7" stroke="#B27678" stroke-width="1.8" stroke-linecap="round"/><path d="M38 54.8L39 60.8" stroke="#B27678" stroke-width="1.8" stroke-linecap="round"/></g><g data-zone="eye"><circle cx="17.3" cy="23.9" r="2.2" fill="#17212C"/><circle cx="16.6" cy="23.2" r=".7" fill="#FFFFFF"/></g></g></svg>
