<svg xmlns="http://www.w3.org/2000/svg" viewBox="0 0 64 64" width="64" height="64" role="img" aria-label="Bécassine des marais"><defs><clipPath id="gallinago-gallinago-c"><path d="M26.5 48.2L39.4 50.8A13 13 0 0 0 39.4 25.2L26.5 27.8A10.4 10.4 0 1 0 26.5 48.2Z"/><path d="M20 31.4Q25 32 30.5 37" fill="none" stroke="#fff" stroke-width="5.8" stroke-linecap="round"/><circle cx="17" cy="27" r="8" fill="#fff"/></clipPath><linearGradient id="gallinago-gallinago-s" x2="1" y2="1"><stop stop-color="#fff" stop-opacity=".16"/><stop offset=".45" stop-color="#fff" stop-opacity="0"/><stop offset="1" stop-color="#061020" stop-opacity=".28"/></linearGradient></defs><g transform="translate(8.1 -4.3) scale(.9)"><g data-morphotype="shorebird"></g><g data-zone="tail"><path d="M45.5 41.8L53.3 42.7A2 2 0 0 0 54.4 38.9L47.1 35.7A3.2 3.2 0 1 0 45.5 41.8Z" fill="#8A7950"/></g><g data-zone="beak"><g stroke-linejoin="round" stroke-width="1.1"><path d="M10.4 27.4L-.2 27.9L10.4 28.8Z" fill="#66624D" stroke="#66624D"/><path d="M10.4 25.8L-2.6 27L10.4 27.2Z" fill="#8D886B" stroke="#8D886B"/></g></g><path d="M26.5 48.2L39.4 50.8A13 13 0 0 0 39.4 25.2L26.5 27.8A10.4 10.4 0 1 0 26.5 48.2Z" fill="#E4DEBE"/><path d="M20 31.4Q25 32 30.5 37" fill="none" stroke="#B9A779" stroke-width="5.8" stroke-linecap="round"/><circle cx="17" cy="27" r="8" fill="#E4DEBE"/><g clip-path="url(#gallinago-gallinago-c)"><g data-zone="back"><circle cx="43.2" cy="31.8" r="10.7" fill="#816B44"/></g><g data-zone="belly"><circle cx="35.7" cy="48.1" r="9.1" fill="#E4DEBE"/></g><g data-zone="breast"><circle cx="20.4" cy="39.6" r="8.1" fill="#B9A779"/></g><g data-zone="throat"><circle cx="15.6" cy="32.8" r="4.6" fill="#D6C595"/></g><g data-zone="cheek"><circle cx="14" cy="28.4" r="4.2" fill="#C8B781"/></g><g data-zone="crown"><circle cx="17.8" cy="21.4" r="5.4" fill="#5D553B"/></g></g><path d="M26.5 48.2L39.4 50.8A13 13 0 0 0 39.4 25.2L26.5 27.8A10.4 10.4 0 1 0 26.5 48.2Z" fill="url(#gallinago-gallinago-s)"/><path d="M20 31.4Q25 32 30.5 37" fill="none" stroke="url(#gallinago-gallinago-s)" stroke-width="5.8" stroke-linecap="round"/><circle cx="17" cy="27" r="8" fill="url(#gallinago-gallinago-s)"/><g data-zone="wing"><g data-zone="wing_bar"><g fill="none" stroke-width="3.2" stroke-linecap="round"><path d="M35 35.2V42.8M43.6 34.8V43.2" stroke="#6F6242"/><path d="M39.3 33.4V44.6M47.9 36.6V41.4" stroke="#C4B079"/></g></g></g><g data-zone="legs"><path d="M32 45.8L30.5 58.5" stroke="#8C9166" stroke-width="1.6" stroke-linecap="round"/><path d="M30.5 58.5L27 60" stroke="#8C9166" stroke-width="1.2" stroke-linecap="round"/><path d="M30.5 58.5L34.5 59.5" stroke="#8C9166" stroke-width="1.2" stroke-linecap="round"/><path d="M40 45.8L41.2 58.5" stroke="#8C9166" stroke-width="1.6" stroke-linecap="round"/><path d="M41.2 58.5L37.7 60" stroke="#8C9166" stroke-width="1.2" stroke-linecap="round"/><path d="M41.2 58.5L45.2 59.5" stroke="#8C9166" stroke-width="1.2" stroke-linecap="round"/></g><g data-zone="eye"><circle cx="14.6" cy="26" r="2.2" fill="#17212C"/><circle cx="13.9" cy="25.3" r=".7" fill="#FFFFFF"/></g></g></svg>
