<svg xmlns="http://www.w3.org/2000/svg" viewBox="0 0 64 64" width="64" height="64" role="img" aria-label="Pouillot véloce"><defs><clipPath id="phylloscopus-collybita-c"><path d="M15.1 33.1A9.5 9.5 0 1 1 27.7 19.4A5 5 0 0 0 31.6 21.5A14.5 14.5 0 1 1 16.5 35.7A3 3 0 0 0 15.1 33.1Z"/></clipPath><linearGradient id="phylloscopus-collybita-s" x2="1" y2="1"><stop stop-color="#fff" stop-opacity=".16"/><stop offset=".45" stop-color="#fff" stop-opacity="0"/><stop offset="1" stop-color="#061020" stop-opacity=".28"/></linearGradient></defs><path d="M43.3 40.8L58.6 27.9A2.5 2.5 0 0 0 55.6 23.9L39 35A3.6 3.6 0 1 0 43.3 40.8Z" fill="#6E7249"/><g stroke-linejoin="round" stroke-width="1"><path d="M11.4 26.4L6.2 26.8L11.8 27.8Z" fill="#34342A" stroke="#34342A"/><path d="M11.8 23.2L4.8 24.8L11.4 26Z" fill="#6A6A50" stroke="#6A6A50"/></g><path d="M15.1 33.1A9.5 9.5 0 1 1 27.7 19.4A5 5 0 0 0 31.6 21.5A14.5 14.5 0 1 1 16.5 35.7A3 3 0 0 0 15.1 33.1Z" fill="#8C9160"/><g clip-path="url(#phylloscopus-collybita-c)"><circle cx="24" cy="48" r="12.5" fill="#E8E4C2"/><path d="M11 24.2L24.5 23.8" stroke="#5B5E3C" stroke-width="1.7" stroke-linecap="round"/><path d="M13.6 20.8L22.4 20.6" stroke="#EFEBCB" stroke-width="1.9" stroke-linecap="round"/></g><path d="M15.1 33.1A9.5 9.5 0 1 1 27.7 19.4A5 5 0 0 0 31.6 21.5A14.5 14.5 0 1 1 16.5 35.7A3 3 0 0 0 15.1 33.1Z" fill="url(#phylloscopus-collybita-s)"/><g fill="none" stroke-width="3.2" stroke-linecap="round"><path d="M30 33V41M38.6 32.8V41.2" stroke="#6E7249"/><path d="M34.3 31.2V42.8" stroke="#A6AA73"/><path d="M42.9 34.6V39.4" stroke="#7C8052"/></g><circle cx="17.8" cy="24" r="2" fill="#13233A"/><circle cx="17.2" cy="23.4" r=".7" fill="#FFFFFF"/></svg>
