<svg xmlns="http://www.w3.org/2000/svg" viewBox="0 0 64 64" width="64" height="64" role="img" aria-label="Grèbe à cou noir"><defs><clipPath id="podiceps-nigricollis-c"><path d="M17.5 32.9A9 9 0 1 1 27.3 20.5A6 6 0 0 0 33.7 24.2A16 16 0 1 1 20.3 37A3.5 3.5 0 0 0 17.5 32.9Z"/></clipPath><linearGradient id="podiceps-nigricollis-s" x2="1" y2="1"><stop stop-color="#fff" stop-opacity=".16"/><stop offset=".45" stop-color="#fff" stop-opacity="0"/><stop offset="1" stop-color="#061020" stop-opacity=".28"/></linearGradient></defs><g transform="translate(4.4 -4.1) scale(1)"><g data-morphotype="waterbird"></g><g data-zone="tail"><path d="M44.2 43.1L47.3 46.7A2.2 2.2 0 0 0 51.1 45L50.3 40.2A3.5 3.5 0 1 0 44.2 43.1Z" fill="#454B3E"/></g><g data-zone="beak"><g stroke-linejoin="round" stroke-width="1.1"><path d="M11.6 24.4L5.1 25.1L11.6 26.2Z" fill="#404D38" stroke="#404D38"/><path d="M11.6 22.5L3.6 24L11.6 24.2Z" fill="#596B4E" stroke="#596B4E"/></g></g><path d="M17.5 32.9A9 9 0 1 1 27.3 20.5A6 6 0 0 0 33.7 24.2A16 16 0 1 1 20.3 37A3.5 3.5 0 0 0 17.5 32.9Z" fill="#A68C5B"/><g clip-path="url(#podiceps-nigricollis-c)"><g data-zone="back"><circle cx="43.7" cy="32.3" r="13.1" fill="#454B3E"/></g><g data-zone="belly"><circle cx="34.4" cy="52.5" r="11.2" fill="#A68C5B"/></g><g data-zone="breast"><circle cx="22.8" cy="41.9" r="9.9" fill="#594E3B"/></g><g data-zone="throat"><circle cx="17.4" cy="30.5" r="5.2" fill="#29392E"/></g><g data-zone="cheek"><circle cx="15.6" cy="25.6" r="4.7" fill="#C59B4A"/></g><g data-zone="crown"><circle cx="19.9" cy="17.7" r="6.1" fill="#29392E"/></g></g><path d="M17.5 32.9A9 9 0 1 1 27.3 20.5A6 6 0 0 0 33.7 24.2A16 16 0 1 1 20.3 37A3.5 3.5 0 0 0 17.5 32.9Z" fill="url(#podiceps-nigricollis-s)"/><g data-zone="wing"><g data-zone="wing_bar"><g fill="none" stroke-width="3.2" stroke-linecap="round"><path d="M36 36.2V43.8M40.3 34.4V45.6M44.6 35.8V44.2M48.9 37.6V42.4" stroke="#605C42"/></g></g></g><g data-zone="legs"><path d="M32 52.2L30 55.2" stroke="#7C8A5D" stroke-width="1.8" stroke-linecap="round"/><path d="M38 53.1L39 56.1" stroke="#7C8A5D" stroke-width="1.8" stroke-linecap="round"/></g><g data-zone="eye"><circle cx="16.3" cy="22.9" r="2.2" fill="#17212C"/><circle cx="15.6" cy="22.2" r=".7" fill="#FFFFFF"/></g></g></svg>
