<svg xmlns="http://www.w3.org/2000/svg" viewBox="0 0 64 64" width="64" height="64" role="img" aria-label="Râle d&#x27;eau"><defs><clipPath id="rallus-aquaticus-c"><path d="M16.2 31.6A9 9 0 1 1 27 19A6 6 0 0 0 33.3 22.2A18 18 0 1 1 18.5 35.7A3.5 3.5 0 0 0 16.2 31.6Z"/></clipPath><linearGradient id="rallus-aquaticus-s" x2="1" y2="1"><stop stop-color="#fff" stop-opacity=".16"/><stop offset=".45" stop-color="#fff" stop-opacity="0"/><stop offset="1" stop-color="#061020" stop-opacity=".28"/></linearGradient></defs><g transform="translate(1.2 -7.9) scale(1)"><g data-morphotype="ground"></g><g data-zone="tail"><path d="M46.7 44.6L53 47.2A2.5 2.5 0 0 0 55.8 43.2L51.2 38.2A4 4 0 1 0 46.7 44.6Z" fill="#77674A"/></g><g data-zone="beak"><g stroke-linejoin="round" stroke-width="1.1"><path d="M11.6 23.4L5.9 24.1L11.6 25.2Z" fill="#805137" stroke="#805137"/><path d="M11.6 21.5L4.6 23L11.6 23.2Z" fill="#B2704D" stroke="#B2704D"/></g></g><path d="M16.2 31.6A9 9 0 1 1 27 19A6 6 0 0 0 33.3 22.2A18 18 0 1 1 18.5 35.7A3.5 3.5 0 0 0 16.2 31.6Z" fill="#B8BAB0"/><g clip-path="url(#rallus-aquaticus-c)"><g data-zone="back"><circle cx="44.6" cy="31.4" r="14.8" fill="#8D7754"/></g><g data-zone="belly"><circle cx="34.2" cy="54" r="12.6" fill="#B8BAB0"/></g><g data-zone="breast"><circle cx="22.8" cy="42.2" r="11.2" fill="#8E9B9A"/></g><g data-zone="throat"><circle cx="17.4" cy="29.5" r="5.2" fill="#ACB3AA"/></g><g data-zone="cheek"><circle cx="15.6" cy="24.6" r="4.7" fill="#949D9A"/></g><g data-zone="crown"><circle cx="19.9" cy="16.7" r="6.1" fill="#8D7754"/></g></g><path d="M16.2 31.6A9 9 0 1 1 27 19A6 6 0 0 0 33.3 22.2A18 18 0 1 1 18.5 35.7A3.5 3.5 0 0 0 16.2 31.6Z" fill="url(#rallus-aquaticus-s)"/><g data-zone="wing"><g data-zone="wing_bar"><g fill="none" stroke-width="3.2" stroke-linecap="round"><path d="M36 36.1V43.9M44.6 35.7V44.3" stroke="#77633E"/><path d="M40.3 34.3V45.7M48.9 37.5V42.5" stroke="#A58B5C"/></g></g></g><g data-zone="legs"><path d="M32 53.7L30 63.7" stroke="#9F9A70" stroke-width="1.8" stroke-linecap="round"/><path d="M38 54.8L39 64.8" stroke="#9F9A70" stroke-width="1.8" stroke-linecap="round"/></g><g data-zone="eye"><circle cx="16.3" cy="21.9" r="2.2" fill="#17212C"/><circle cx="15.6" cy="21.2" r=".7" fill="#FFFFFF"/></g></g></svg>
