<svg xmlns="http://www.w3.org/2000/svg" viewBox="0 0 64 64" width="64" height="64" role="img" aria-label="Martins-pêcheurs"><defs><clipPath id="template-alcedinidae-c"><path d="M20 34.4A11.5 11.5 0 1 1 36.3 21.6A6 6 0 0 0 39.9 25.9A13 13 0 1 1 22 37.6A3.5 3.5 0 0 0 20 34.4Z"/></clipPath><linearGradient id="template-alcedinidae-s" x2="1" y2="1"><stop stop-color="#fff" stop-opacity=".16"/><stop offset=".45" stop-color="#fff" stop-opacity="0"/><stop offset="1" stop-color="#061020" stop-opacity=".28"/></linearGradient></defs><g transform="translate(4.9 -1.6) scale(1)"><g data-morphotype="longbill"></g><g data-zone="tail"><path d="M41.5 41.6L48.4 47.2A2.4 2.4 0 0 0 51.8 44.1L47 36.6A3.8 3.8 0 1 0 41.5 41.6Z" fill="#636363"/></g><g data-zone="beak"><g stroke-linejoin="round" stroke-width="1.1"><path d="M15.6 24.4L4.1 25.1L15.6 26.2Z" fill="#575757" stroke="#575757"/><path d="M15.6 22.5L1.6 24L15.6 24.2Z" fill="#797979" stroke="#797979"/></g></g><path d="M20 34.4A11.5 11.5 0 1 1 36.3 21.6A6 6 0 0 0 39.9 25.9A13 13 0 1 1 22 37.6A3.5 3.5 0 0 0 20 34.4Z" fill="#E5E5E5"/><g clip-path="url(#template-alcedinidae-c)"><g data-zone="back"><circle cx="41.2" cy="31.8" r="10.7" fill="#858585"/></g><g data-zone="belly"><circle cx="33.7" cy="48.1" r="9.1" fill="#E5E5E5"/></g><g data-zone="breast"><circle cx="29.8" cy="39.6" r="8.1" fill="#B0B0B0"/></g><g data-zone="throat"><circle cx="22.9" cy="32.3" r="6.7" fill="#DBDBDB"/></g><g data-zone="cheek"><circle cx="20.6" cy="26.1" r="6" fill="#CDCDCD"/></g><g data-zone="crown"><circle cx="26.1" cy="16" r="7.8" fill="#747474"/></g></g><path d="M20 34.4A11.5 11.5 0 1 1 36.3 21.6A6 6 0 0 0 39.9 25.9A13 13 0 1 1 22 37.6A3.5 3.5 0 0 0 20 34.4Z" fill="url(#template-alcedinidae-s)"/><g data-zone="wing"><g data-zone="wing_bar"><g fill="none" stroke-width="3.2" stroke-linecap="round"><path d="M37 34.1V41.9M45.6 33.6V42.4" stroke="#666666"/><path d="M41.3 32.2V43.8M49.9 35.5V40.5" stroke="#CDCDCD"/></g></g></g><g data-zone="legs"><path d="M31 47.9L29 52.9" stroke="#686868" stroke-width="1.8" stroke-linecap="round"/><path d="M37 48.7L38 53.7" stroke="#686868" stroke-width="1.8" stroke-linecap="round"/></g><g data-zone="eye"><circle cx="21.6" cy="22.6" r="2.2" fill="#343434"/><circle cx="20.9" cy="21.9" r=".7" fill="#FFFFFF"/></g></g></svg>
