<svg xmlns="http://www.w3.org/2000/svg" viewBox="0 0 64 64" width="64" height="64" role="img" aria-label="Moineaux"><defs><clipPath id="template-passeridae-c"><path d="M15 31.9A12 12 0 1 1 33.1 16.6A6 6 0 0 0 37.2 19.3A18 18 0 1 1 16.1 34.9A3.5 3.5 0 0 0 15 31.9Z"/></clipPath><linearGradient id="template-passeridae-s" x2="1" y2="1"><stop stop-color="#fff" stop-opacity=".16"/><stop offset=".45" stop-color="#fff" stop-opacity="0"/><stop offset="1" stop-color="#061020" stop-opacity=".28"/></linearGradient></defs><g transform="translate(-2.3 -2.9) scale(1)"><g data-morphotype="passerine"></g><g data-zone="tail"><path d="M48.6 41.1L59.8 32.9A2.5 2.5 0 0 0 57.4 28.6L44.6 34.2A4 4 0 1 0 48.6 41.1Z" fill="#636363"/></g><g data-zone="beak"><g stroke-linejoin="round" stroke-width="1.1"><path d="M13.2 23.4L8.2 24.8L13.2 26.6Z" fill="#575757" stroke="#575757"/><path d="M13.2 20.5L7.2 23L13.2 23.2Z" fill="#797979" stroke="#797979"/></g></g><path d="M15 31.9A12 12 0 1 1 33.1 16.6A6 6 0 0 0 37.2 19.3A18 18 0 1 1 16.1 34.9A3.5 3.5 0 0 0 15 31.9Z" fill="#E5E5E5"/><g clip-path="url(#template-passeridae-c)"><g data-zone="back"><circle cx="42.6" cy="28.4" r="14.8" fill="#858585"/></g><g data-zone="belly"><circle cx="32.2" cy="51" r="12.6" fill="#E5E5E5"/></g><g data-zone="breast"><circle cx="28" cy="39.2" r="11.2" fill="#B0B0B0"/></g><g data-zone="throat"><circle cx="20.8" cy="31.6" r="7" fill="#DBDBDB"/></g><g data-zone="cheek"><circle cx="18.4" cy="25.2" r="6.2" fill="#CDCDCD"/></g><g data-zone="crown"><circle cx="24.2" cy="14.6" r="8.2" fill="#747474"/></g></g><path d="M15 31.9A12 12 0 1 1 33.1 16.6A6 6 0 0 0 37.2 19.3A18 18 0 1 1 16.1 34.9A3.5 3.5 0 0 0 15 31.9Z" fill="url(#template-passeridae-s)"/><g data-zone="wing"><g data-zone="wing_bar"><g fill="none" stroke-width="3.2" stroke-linecap="round"><path d="M34 33.6V42.4M42.6 33.1V42.9" stroke="#666666"/><path d="M38.3 31.6V44.4M46.9 35.2V40.8" stroke="#CDCDCD"/></g></g></g><g data-zone="legs"><path d="M30 50.7L28 56.7" stroke="#686868" stroke-width="1.8" stroke-linecap="round"/><path d="M36 51.8L37 57.8" stroke="#686868" stroke-width="1.8" stroke-linecap="round"/></g><g data-zone="eye"><circle cx="19.4" cy="21.6" r="2.2" fill="#343434"/><circle cx="18.7" cy="20.9" r=".7" fill="#FFFFFF"/></g></g></svg>
