<svg xmlns="http://www.w3.org/2000/svg" viewBox="0 0 64 64" width="64" height="64" role="img" aria-label="Flamants"><defs><clipPath id="template-phoenicopteridae-c"><path d="M26.7 50L40.6 52.7A14 14 0 0 0 40.6 25.3L26.7 28A11.2 11.2 0 1 0 26.7 50Z"/><path d="M17 17.6C30 19 20 35 31.3 37" fill="none" stroke="#fff" stroke-width="5.7" stroke-linecap="round"/><circle cx="15" cy="13" r="7" fill="#fff"/></clipPath><linearGradient id="template-phoenicopteridae-s" x2="1" y2="1"><stop stop-color="#fff" stop-opacity=".16"/><stop offset=".45" stop-color="#fff" stop-opacity="0"/><stop offset="1" stop-color="#061020" stop-opacity=".28"/></linearGradient></defs><g transform="translate(8.8 -2) scale(.9)"><g data-morphotype="wader"></g><g data-zone="tail"><path d="M46.7 43.1L53.3 44.8A2.2 2.2 0 0 0 55.1 40.9L49.6 36.9A3.5 3.5 0 1 0 46.7 43.1Z" fill="#636363"/></g><g data-zone="beak"><g stroke-linejoin="round" stroke-width="1.1"><path d="M9.3 13.4L-2.2 14.8L9.3 16.6Z" fill="#575757" stroke="#575757"/><path d="M9.3 10.5L-4.7 13L9.3 13.2Z" fill="#797979" stroke="#797979"/></g></g><path d="M26.7 50L40.6 52.7A14 14 0 0 0 40.6 25.3L26.7 28A11.2 11.2 0 1 0 26.7 50Z" fill="#E5E5E5"/><path d="M17 17.6C30 19 20 35 31.3 37" fill="none" stroke="#B0B0B0" stroke-width="5.7" stroke-linecap="round"/><circle cx="15" cy="13" r="7" fill="#E5E5E5"/><g clip-path="url(#template-phoenicopteridae-c)"><g data-zone="back"><circle cx="44.7" cy="32.3" r="11.5" fill="#858585"/></g><g data-zone="belly"><circle cx="36.6" cy="49.9" r="9.8" fill="#E5E5E5"/></g><g data-zone="breast"><circle cx="17.9" cy="40.7" r="8.7" fill="#B0B0B0"/></g><g data-zone="throat"><circle cx="13.7" cy="18" r="4.1" fill="#DBDBDB"/></g><g data-zone="cheek"><circle cx="12.3" cy="14.3" r="3.6" fill="#CDCDCD"/></g><g data-zone="crown"><circle cx="15.7" cy="8.1" r="4.8" fill="#747474"/></g></g><path d="M26.7 50L40.6 52.7A14 14 0 0 0 40.6 25.3L26.7 28A11.2 11.2 0 1 0 26.7 50Z" fill="url(#template-phoenicopteridae-s)"/><path d="M17 17.6C30 19 20 35 31.3 37" fill="none" stroke="url(#template-phoenicopteridae-s)" stroke-width="5.7" stroke-linecap="round"/><circle cx="15" cy="13" r="7" fill="url(#template-phoenicopteridae-s)"/><g data-zone="wing"><g data-zone="wing_bar"><g fill="none" stroke-width="3.2" stroke-linecap="round"><path d="M38 36.2V43.8M46.6 35.8V44.2" stroke="#666666"/><path d="M42.3 34.4V45.6M50.9 37.6V42.4" stroke="#CDCDCD"/></g></g></g><g data-zone="legs"><path d="M33 47.4L31.5 66.1" stroke="#686868" stroke-width="1.6" stroke-linecap="round"/><path d="M31.5 66.1L28 67.6" stroke="#686868" stroke-width="1.2" stroke-linecap="round"/><path d="M31.5 66.1L35.5 67.1" stroke="#686868" stroke-width="1.2" stroke-linecap="round"/><path d="M41 47.4L42.2 66.1" stroke="#686868" stroke-width="1.6" stroke-linecap="round"/><path d="M42.2 66.1L38.7 67.6" stroke="#686868" stroke-width="1.2" stroke-linecap="round"/><path d="M42.2 66.1L46.2 67.1" stroke="#686868" stroke-width="1.2" stroke-linecap="round"/></g><g data-zone="eye"><circle cx="12.9" cy="12.2" r="2.2" fill="#343434"/><circle cx="12.2" cy="11.5" r=".7" fill="#FFFFFF"/></g></g></svg>
